<svg width="16" height="16" viewBox="0 0 16 16" fill="none" xmlns="http://www.w3.org/2000/svg">
<path d="M14.0777 10.9212C14.2046 11.0744 14.2654 11.2716 14.2469 11.4695C14.2284 11.6674 14.132 11.8499 13.979 11.9769C12.8434 12.9194 11.8165 13.25 10.8846 13.25C9.64962 13.25 8.58087 12.6694 7.64212 12.16C6.07587 11.3087 4.83837 10.6369 2.97899 12.1787C2.82583 12.3057 2.6285 12.3666 2.43042 12.3481C2.23233 12.3296 2.04972 12.2332 1.92274 12.08C1.79577 11.9268 1.73484 11.7295 1.75336 11.5314C1.77188 11.3333 1.86833 11.1507 2.02149 11.0237C4.66212 8.83624 6.70899 9.94687 8.35837 10.8412C9.92462 11.6919 11.1621 12.3644 13.0215 10.8225C13.0973 10.7596 13.1848 10.7123 13.2789 10.6832C13.3731 10.6541 13.472 10.6439 13.5701 10.6531C13.6682 10.6622 13.7635 10.6906 13.8506 10.7366C13.9377 10.7827 14.0149 10.8454 14.0777 10.9212ZM13.0215 7.32187C11.1621 8.86374 9.92462 8.19124 8.35837 7.34062C6.71149 6.44687 4.66212 5.33374 2.02149 7.52312C1.86833 7.65009 1.77188 7.83271 1.75336 8.03079C1.73484 8.22888 1.79577 8.42621 1.92274 8.57937C2.04972 8.73253 2.23233 8.82898 2.43042 8.8475C2.6285 8.86602 2.82583 8.80509 2.97899 8.67812C4.83837 7.13624 6.07587 7.80812 7.64212 8.65937C8.57962 9.16874 9.64962 9.74937 10.8846 9.74937C11.8165 9.74937 12.8434 9.41874 13.979 8.47687C14.1322 8.3499 14.2286 8.16728 14.2471 7.96919C14.2656 7.77111 14.2047 7.57378 14.0777 7.42062C13.9508 7.26746 13.7682 7.17101 13.5701 7.15249C13.372 7.13397 13.1747 7.1949 13.0215 7.32187ZM2.97899 5.17749C4.83837 3.63562 6.07587 4.30749 7.64212 5.15874C8.57962 5.66812 9.64962 6.24874 10.8846 6.24874C11.8165 6.24874 12.8434 5.91812 13.979 4.97624C14.1322 4.84927 14.2286 4.66666 14.2471 4.46857C14.2656 4.27049 14.2047 4.07316 14.0777 3.91999C13.9508 3.76683 13.7682 3.67038 13.5701 3.65186C13.372 3.63334 13.1747 3.69427 13.0215 3.82124C11.1621 5.36312 9.92462 4.69124 8.35837 3.83999C6.71149 2.94624 4.66212 1.83312 2.02149 4.02312C1.94385 4.08539 1.87937 4.16249 1.83183 4.24994C1.78428 4.33738 1.75462 4.43341 1.74456 4.53243C1.7345 4.63145 1.74426 4.73149 1.77326 4.8267C1.80225 4.92192 1.84991 5.01041 1.91346 5.08702C1.977 5.16363 2.05516 5.22682 2.14337 5.27292C2.23159 5.31902 2.32809 5.34709 2.42727 5.35551C2.52644 5.36394 2.6263 5.35253 2.72103 5.32197C2.81575 5.2914 2.90344 5.24229 2.97899 5.17749Z" fill="#0B1A1A"/>
</svg>
