<svg width="99" height="26" viewBox="0 0 99 26" fill="none" xmlns="http://www.w3.org/2000/svg">
<path d="M93.7973 25.364C93.5107 25.364 93.3555 25.2326 93.3316 24.9699L92.7584 21.5307C92.7584 21.4113 92.6868 21.3516 92.5435 21.3516H87.9937C87.8504 21.3516 87.7787 21.4113 87.7787 21.5307L87.2056 24.9699C87.1817 25.2326 87.0264 25.364 86.7398 25.364H82.5483C82.2378 25.364 82.1184 25.2087 82.1901 24.8983L87.4563 0.680673C87.5041 0.417956 87.6593 0.286598 87.922 0.286598H92.7584C93.0211 0.286598 93.1764 0.417956 93.2241 0.680673L98.4545 24.8983L98.4904 25.0416C98.4904 25.2565 98.359 25.364 98.0963 25.364H93.7973ZM88.4952 17.2676C88.4952 17.387 88.543 17.4467 88.6385 17.4467H91.8628C91.9822 17.4467 92.03 17.387 92.0061 17.2676L90.3223 7.48739C90.2984 7.41574 90.2626 7.37992 90.2148 7.37992C90.1671 7.37992 90.1312 7.41574 90.1074 7.48739L88.4952 17.2676Z" fill="#0B1A1A"/>
<path d="M76.1142 25.364C75.8515 25.364 75.6843 25.2446 75.6127 25.0057L72.8542 15.1181C72.8064 15.0225 72.7467 14.9748 72.675 14.9748H71.457C71.3376 14.9748 71.2779 15.0345 71.2779 15.1539V24.9341C71.2779 25.0535 71.2301 25.161 71.1346 25.2565C71.0629 25.3282 70.9674 25.364 70.848 25.364H66.6565C66.537 25.364 66.4296 25.3282 66.334 25.2565C66.2624 25.161 66.2266 25.0535 66.2266 24.9341V0.716497C66.2266 0.597081 66.2624 0.501548 66.334 0.429898C66.4296 0.334365 66.537 0.286598 66.6565 0.286598H73.8931C75.2067 0.286598 76.3769 0.609022 77.4039 1.25387C78.4309 1.87483 79.219 2.75851 79.7683 3.90491C80.3415 5.0513 80.6281 6.36488 80.6281 7.84564C80.6281 9.25475 80.3535 10.4967 79.8042 11.5714C79.2787 12.6462 78.5384 13.4821 77.583 14.0792C77.5353 14.103 77.4994 14.1389 77.4756 14.1866C77.4517 14.2105 77.4517 14.2463 77.4756 14.2941L80.7714 24.8624L80.8073 25.0057C80.8073 25.2446 80.6759 25.364 80.4132 25.364H76.1142ZM71.457 4.6214C71.3376 4.6214 71.2779 4.68111 71.2779 4.80053V10.9266C71.2779 11.046 71.3376 11.1057 71.457 11.1057H73.0691C73.8095 11.1057 74.4066 10.8191 74.8604 10.2459C75.338 9.64882 75.5768 8.86068 75.5768 7.88146C75.5768 6.87837 75.338 6.09022 74.8604 5.51703C74.4066 4.91994 73.8095 4.6214 73.0691 4.6214H71.457Z" fill="#0B1A1A"/>
<path d="M56.1722 25.6506C53.9749 25.6506 52.2195 25.0057 50.9059 23.716C49.5923 22.4263 48.9355 20.7068 48.9355 18.5573V7.09332C48.9355 4.94383 49.5923 3.22423 50.9059 1.93454C52.2195 0.644846 53.9749 0 56.1722 0C58.3694 0 60.1248 0.644846 61.4384 1.93454C62.7759 3.22423 63.4446 4.94383 63.4446 7.09332V18.5573C63.4446 20.7068 62.7759 22.4263 61.4384 23.716C60.1248 25.0057 58.3694 25.6506 56.1722 25.6506ZM56.1722 21.3158C56.8409 21.3158 57.3783 21.0889 57.7843 20.6351C58.1903 20.1574 58.3933 19.5365 58.3933 18.7722V6.87837C58.3933 6.1141 58.1903 5.50508 57.7843 5.0513C57.3783 4.57364 56.8409 4.33481 56.1722 4.33481C55.5034 4.33481 54.9661 4.57364 54.56 5.0513C54.1779 5.50508 53.9869 6.1141 53.9869 6.87837V18.7722C53.9869 19.5365 54.1779 20.1574 54.56 20.6351C54.9661 21.0889 55.5034 21.3158 56.1722 21.3158Z" fill="#0B1A1A"/>
<path d="M37.9662 25.3282C37.8468 25.3282 37.7394 25.2923 37.6438 25.2207C37.5722 25.1252 37.5363 25.0177 37.5363 24.8983V15.5838L37.5005 15.3689L32.485 0.788146C32.4612 0.74038 32.4492 0.680672 32.4492 0.609022C32.4492 0.394073 32.5806 0.286598 32.8433 0.286598H37.2497C37.5125 0.286598 37.6796 0.406014 37.7513 0.644846L39.9724 9.20698C39.9963 9.27863 40.0321 9.31446 40.0799 9.31446C40.1277 9.31446 40.1635 9.27863 40.1874 9.20698L42.4085 0.644846C42.4802 0.406014 42.6474 0.286598 42.9101 0.286598H47.3165C47.4598 0.286598 47.5673 0.334365 47.639 0.429898C47.7106 0.501548 47.7225 0.620964 47.6748 0.788146L42.6235 15.3689L42.5877 15.5838V24.8983C42.5877 25.0177 42.5399 25.1252 42.4444 25.2207C42.3727 25.2923 42.2772 25.3282 42.1578 25.3282H37.9662Z" fill="#0B1A1A"/>
<path d="M28.4096 25.364C28.123 25.364 27.9678 25.2326 27.9439 24.9699L27.3707 21.5307C27.3707 21.4113 27.2991 21.3516 27.1558 21.3516H22.606C22.4627 21.3516 22.3911 21.4113 22.3911 21.5307L21.8179 24.9699C21.794 25.2326 21.6387 25.364 21.3521 25.364H17.1606C16.8501 25.364 16.7307 25.2087 16.8024 24.8983L22.0686 0.680673C22.1164 0.417956 22.2716 0.286598 22.5344 0.286598H27.3707C27.6334 0.286598 27.7887 0.417956 27.8364 0.680673L33.0669 24.8983L33.1027 25.0416C33.1027 25.2565 32.9713 25.364 32.7086 25.364H28.4096ZM23.1075 17.2676C23.1075 17.387 23.1553 17.4467 23.2508 17.4467H26.4751C26.5945 17.4467 26.6423 17.387 26.6184 17.2676L24.9346 7.48739C24.9107 7.41574 24.8749 7.37992 24.8271 7.37992C24.7794 7.37992 24.7436 7.41574 24.7197 7.48739L23.1075 17.2676Z" fill="#0B1A1A"/>
<path d="M0.429898 25.364C0.310482 25.364 0.203007 25.3282 0.107474 25.2565C0.0358248 25.161 0 25.0535 0 24.9341V0.716497C0 0.597081 0.0358248 0.501548 0.107474 0.429898C0.203007 0.334365 0.310482 0.286598 0.429898 0.286598H4.6214C4.74082 0.286598 4.83635 0.334365 4.908 0.429898C5.00354 0.501548 5.0513 0.597081 5.0513 0.716497V9.74436C5.0513 9.83989 5.07518 9.8996 5.12295 9.92348C5.1946 9.92348 5.24237 9.87571 5.26625 9.78018L9.88766 0.609022C10.0071 0.394073 10.1743 0.286598 10.3892 0.286598H14.8315C14.9987 0.286598 15.1061 0.334365 15.1539 0.429898C15.2256 0.501548 15.2256 0.620964 15.1539 0.788146L9.85183 11.1057C9.82795 11.2012 9.81601 11.2729 9.81601 11.3206L15.4405 24.8624C15.4644 24.9102 15.4763 24.9819 15.4763 25.0774C15.4763 25.2685 15.3569 25.364 15.1181 25.364H10.64C10.3773 25.364 10.2101 25.2565 10.1384 25.0416L6.41265 15.6555C6.38876 15.5838 6.35294 15.5599 6.30517 15.5838C6.25741 15.5838 6.20964 15.6077 6.16187 15.6555L5.12295 17.5183C5.07518 17.6139 5.0513 17.6855 5.0513 17.7333V24.9341C5.0513 25.0535 5.00354 25.161 4.908 25.2565C4.83635 25.3282 4.74082 25.364 4.6214 25.364H0.429898Z" fill="#0B1A1A"/>
</svg>
