<svg width="124" height="124" viewBox="0 0 124 124" fill="none" xmlns="http://www.w3.org/2000/svg">
<path d="M46.6602 80.4418V42.9561C46.6602 42.4901 46.8453 42.0432 47.1748 41.7136C47.5043 41.3841 47.9513 41.199 48.4173 41.199H56.6173C57.0833 41.199 57.5303 41.3841 57.8598 41.7136C58.1893 42.0432 58.3744 42.4901 58.3744 42.9561V80.4418C58.3744 80.9079 58.1893 81.3548 57.8598 81.6843C57.5303 82.0139 57.0833 82.199 56.6173 82.199H48.4173C47.9513 82.199 47.5043 82.0139 47.1748 81.6843C46.8453 81.3548 46.6602 80.9079 46.6602 80.4418ZM65.0231 80.4418V42.9561C65.0231 42.4901 65.2082 42.0432 65.5377 41.7136C65.8673 41.3841 66.3142 41.199 66.7802 41.199H74.9802C75.4463 41.199 75.8932 41.3841 76.2227 41.7136C76.5523 42.0432 76.7374 42.4901 76.7374 42.9561V80.4418C76.7374 80.9079 76.5523 81.3548 76.2227 81.6843C75.8932 82.0139 75.4463 82.199 74.9802 82.199H66.7802C66.3142 82.199 65.8673 82.0139 65.5377 81.6843C65.2082 81.3548 65.0231 80.9079 65.0231 80.4418Z" fill="#FFFCF8" stroke="#FFFCF8" stroke-width="1.5"/>
<path d="M31.9986 23.8325C41.3063 16.5322 52.9775 12.9159 64.7824 13.6738C75.779 14.3798 86.1747 18.8357 94.254 26.2573C95.027 26.9676 95.0292 28.1919 94.2572 28.9518C93.4949 29.7021 92.2503 29.7023 91.4322 28.9592C84.0337 22.2398 74.5546 18.2069 64.5322 17.5635C53.6836 16.867 42.9581 20.1906 34.4043 26.8996C25.8506 33.6087 20.0673 43.2338 18.1591 53.936C16.2509 64.638 18.3517 75.6679 24.0595 84.9198C29.7673 94.1718 38.6825 100.998 49.1033 104.094C59.5241 107.19 70.7202 106.339 80.5538 101.704C90.3873 97.0696 98.17 88.9757 102.415 78.9676C106.336 69.7217 106.985 59.4401 104.298 49.8133C104.002 48.7489 104.56 47.6373 105.573 47.2927C106.598 46.9439 107.691 47.4953 107.979 48.5047C110.987 59.0549 110.305 70.3448 106.003 80.4893C101.384 91.3793 92.9164 100.188 82.2163 105.231C71.516 110.274 59.3323 111.199 47.993 107.83C36.6539 104.461 26.9529 97.0334 20.7421 86.9661C14.5313 76.8987 12.2452 64.8966 14.3216 53.2512C16.3981 41.6059 22.691 31.1329 31.9986 23.8325Z" fill="#FFFCF8" stroke="#FFFCF8" stroke-linejoin="round"/>
</svg>
