<svg width="1920" height="89" viewBox="0 0 1920 89" fill="none" xmlns="http://www.w3.org/2000/svg">
<path d="M267.433 0.219868C192.547 4.08359 57.8566 88.238 0.000415444 88.2413L1920 88.1875C1910.95 88.1875 1885.55 84.9886 1856.38 72.1934C1827.21 59.3981 1765.6 29.0577 1738.45 15.487C1725 9.4286 1686.31 -0.507131 1639.14 8.21693C1580.17 19.122 1509.57 68.5583 1462.24 67.1043C1424.38 65.9411 1376.1 25.5996 1307.85 8.21693C1292.33 4.82424 1249.2 0.0744734 1200.78 8.21693C1140.27 18.395 1001.39 83.8254 907.51 73.6474C813.632 63.4693 723.501 -1.72249 642.945 0.219868C577.795 1.79075 522.485 54.0185 447.43 54.0182C399.023 54.0181 349.29 -4.00356 267.433 0.219868Z" fill="white"/>
</svg>
