<svg width="145" height="52" viewBox="0 0 145 52" fill="none" xmlns="http://www.w3.org/2000/svg">
<mask id="mask0_152_2" style="mask-type:alpha" maskUnits="userSpaceOnUse" x="0" y="8" width="36" height="36">
<circle cx="18" cy="26" r="18" fill="#D9D9D9"/>
</mask>
<g mask="url(#mask0_152_2)">
<path d="M26.7855 44.5416C24.7698 44.545 22.7734 44.1504 20.9105 43.3806C19.0477 42.6107 17.3551 41.4807 15.9299 40.0553C14.1478 38.2768 11.7329 37.2779 9.2151 37.2779C6.69732 37.2779 4.28238 38.2768 2.50028 40.0553C2.2284 40.3272 1.90562 40.5429 1.55039 40.69C1.19515 40.8372 0.814413 40.9129 0.429908 40.9129C0.0454035 40.9129 -0.335336 40.8372 -0.690572 40.69C-1.04581 40.5429 -1.36858 40.3272 -1.64047 40.0553C-1.91235 39.7835 -2.12803 39.4607 -2.27517 39.1054C-2.42231 38.7502 -2.49805 38.3695 -2.49805 37.985C-2.49805 37.6005 -2.42231 37.2197 -2.27517 36.8645C-2.12803 36.5093 -1.91235 36.1865 -1.64047 35.9146C1.24146 33.0409 5.14525 31.4272 9.2151 31.4272C13.2849 31.4272 17.1887 33.0409 20.0707 35.9146C21.8543 37.6903 24.2687 38.6872 26.7855 38.6872C29.3023 38.6872 31.7167 37.6903 33.5003 35.9146C33.7722 35.6427 34.095 35.427 34.4502 35.2799C34.8054 35.1327 35.1862 35.057 35.5707 35.057C35.9552 35.057 36.3359 35.1327 36.6912 35.2799C37.0464 35.427 37.3692 35.6427 37.6411 35.9146C37.9129 36.1865 38.1286 36.5093 38.2758 36.8645C38.4229 37.2197 38.4986 37.6005 38.4986 37.985C38.4986 38.3695 38.4229 38.7502 38.2758 39.1054C38.1286 39.4607 37.9129 39.7835 37.6411 40.0553C36.2158 41.4807 34.5233 42.6107 32.6605 43.3806C30.7976 44.1504 28.8011 44.545 26.7855 44.5416ZM26.7855 32.8281C24.7698 32.8314 22.7734 32.4368 20.9105 31.667C19.0477 30.8971 17.3551 29.7671 15.9299 28.3418C14.1478 26.5632 11.7329 25.5643 9.2151 25.5643C6.69732 25.5643 4.28238 26.5632 2.50028 28.3418C1.95119 28.8909 1.20645 29.1993 0.429908 29.1993C-0.346634 29.1993 -1.09137 28.8909 -1.64047 28.3418C-2.18957 27.7927 -2.49805 27.0479 -2.49805 26.2714C-2.49805 25.4948 -2.18957 24.7501 -1.64047 24.201C1.24146 21.3273 5.14525 19.7136 9.2151 19.7136C13.2849 19.7136 17.1887 21.3273 20.0707 24.201C21.8543 25.9767 24.2687 26.9737 26.7855 26.9737C29.3023 26.9737 31.7167 25.9767 33.5003 24.201C34.0494 23.6519 34.7941 23.3434 35.5707 23.3434C36.3472 23.3434 37.092 23.6519 37.6411 24.201C38.1902 24.7501 38.4986 25.4948 38.4986 26.2714C38.4986 27.0479 38.1902 27.7927 37.6411 28.3418C36.2158 29.7671 34.5233 30.8971 32.6605 31.667C30.7976 32.4368 28.8011 32.8314 26.7855 32.8281ZM26.7855 21.1145C24.7698 21.1178 22.7734 20.7232 20.9105 19.9534C19.0477 19.1835 17.3551 18.0535 15.9299 16.6282C14.1478 14.8496 11.7329 13.8507 9.2151 13.8507C6.69732 13.8507 4.28238 14.8496 2.50028 16.6282C2.2284 16.9 1.90562 17.1157 1.55039 17.2629C1.19515 17.41 0.814413 17.4857 0.429908 17.4857C0.0454035 17.4857 -0.335336 17.41 -0.690572 17.2629C-1.04581 17.1157 -1.36858 16.9 -1.64047 16.6282C-1.91236 16.3563 -2.12803 16.0335 -2.27517 15.6783C-2.42231 15.323 -2.49805 14.9423 -2.49805 14.5578C-2.49805 14.1733 -2.42231 13.7925 -2.27517 13.4373C-2.12803 13.0821 -1.91235 12.7593 -1.64047 12.4874C1.24146 9.61371 5.14525 7.99997 9.2151 7.99997C13.2849 7.99997 17.1887 9.61371 20.0707 12.4874C21.8543 14.2631 24.2687 15.2601 26.7855 15.2601C29.3023 15.2601 31.7167 14.2631 33.5003 12.4874C34.0494 11.9383 34.7941 11.6298 35.5707 11.6298C36.3472 11.6298 37.092 11.9383 37.6411 12.4874C38.1902 13.0365 38.4986 13.7812 38.4986 14.5578C38.4986 15.3343 38.1902 16.0791 37.6411 16.6282C36.2158 18.0535 34.5233 19.1835 32.6605 19.9534C30.7976 20.7232 28.8011 21.1178 26.7855 21.1145Z" fill="url(#paint0_linear_152_2)"/>
</g>
<path d="M46.3724 40C46.253 40 46.1455 39.9642 46.05 39.8925C45.9783 39.797 45.9425 39.6895 45.9425 39.5701V15.3525C45.9425 15.2331 45.9783 15.1376 46.05 15.0659C46.1455 14.9704 46.253 14.9226 46.3724 14.9226H50.5639C50.6833 14.9226 50.7789 14.9704 50.8505 15.0659C50.946 15.1376 50.9938 15.2331 50.9938 15.3525V24.3804C50.9938 24.4759 51.0177 24.5356 51.0655 24.5595C51.1371 24.5595 51.1849 24.5117 51.2088 24.4162L55.8302 15.245C55.9496 15.0301 56.1168 14.9226 56.3317 14.9226H60.774C60.9412 14.9226 61.0487 14.9704 61.0964 15.0659C61.1681 15.1376 61.1681 15.257 61.0964 15.4242L55.7943 25.7417C55.7705 25.8372 55.7585 25.9089 55.7585 25.9567L61.383 39.4985C61.4069 39.5462 61.4188 39.6179 61.4188 39.7134C61.4188 39.9045 61.2994 40 61.0606 40H56.5825C56.3198 40 56.1526 39.8925 56.0809 39.6776L52.3552 30.2915C52.3313 30.2198 52.2954 30.1959 52.2477 30.2198C52.1999 30.2198 52.1522 30.2437 52.1044 30.2915L51.0655 32.1544C51.0177 32.2499 50.9938 32.3215 50.9938 32.3693V39.5701C50.9938 39.6895 50.946 39.797 50.8505 39.8925C50.7789 39.9642 50.6833 40 50.5639 40H46.3724ZM74.3524 40C74.0658 40 73.9106 39.8686 73.8867 39.6059L73.3135 36.1667C73.3135 36.0473 73.2419 35.9876 73.0986 35.9876H68.5488C68.4055 35.9876 68.3339 36.0473 68.3339 36.1667L67.7607 39.6059C67.7368 39.8686 67.5816 40 67.295 40H63.1034C62.793 40 62.6736 39.8448 62.7452 39.5343L68.0115 15.3167C68.0592 15.054 68.2145 14.9226 68.4772 14.9226H73.3135C73.5762 14.9226 73.7315 15.054 73.7793 15.3167L79.0097 39.5343L79.0455 39.6776C79.0455 39.8925 78.9141 40 78.6514 40H74.3524ZM69.0504 31.9036C69.0504 32.023 69.0981 32.0827 69.1937 32.0827H72.4179C72.5373 32.0827 72.5851 32.023 72.5612 31.9036L70.8774 22.1234C70.8536 22.0518 70.8177 22.0159 70.77 22.0159C70.7222 22.0159 70.6864 22.0518 70.6625 22.1234L69.0504 31.9036ZM83.909 39.9642C83.7896 39.9642 83.6821 39.9284 83.5866 39.8567C83.5149 39.7612 83.4791 39.6537 83.4791 39.5343V30.2198L83.4433 30.0049L78.4278 15.4242C78.4039 15.3764 78.392 15.3167 78.392 15.245C78.392 15.0301 78.5233 14.9226 78.7861 14.9226H83.1925C83.4552 14.9226 83.6224 15.042 83.6941 15.2809L85.9152 23.843C85.9391 23.9146 85.9749 23.9505 86.0227 23.9505C86.0704 23.9505 86.1063 23.9146 86.1301 23.843L88.3513 15.2809C88.4229 15.042 88.5901 14.9226 88.8528 14.9226H93.2593C93.4026 14.9226 93.5101 14.9704 93.5817 15.0659C93.6534 15.1376 93.6653 15.257 93.6175 15.4242L88.5662 30.0049L88.5304 30.2198V39.5343C88.5304 39.6537 88.4826 39.7612 88.3871 39.8567C88.3155 39.9284 88.2199 39.9642 88.1005 39.9642H83.909ZM104.125 40C103.838 40 103.683 39.8686 103.659 39.6059L103.086 36.1667C103.086 36.0473 103.014 35.9876 102.871 35.9876H98.3212C98.1779 35.9876 98.1063 36.0473 98.1063 36.1667L97.5331 39.6059C97.5092 39.8686 97.354 40 97.0674 40H92.8758C92.5654 40 92.446 39.8448 92.5176 39.5343L97.7839 15.3167C97.8316 15.054 97.9869 14.9226 98.2496 14.9226H103.086C103.349 14.9226 103.504 15.054 103.552 15.3167L108.782 39.5343L108.818 39.6776C108.818 39.8925 108.687 40 108.424 40H104.125ZM98.8228 31.9036C98.8228 32.023 98.8705 32.0827 98.9661 32.0827H102.19C102.31 32.0827 102.357 32.023 102.334 31.9036L100.65 22.1234C100.626 22.0518 100.59 22.0159 100.542 22.0159C100.495 22.0159 100.459 22.0518 100.435 22.1234L98.8228 31.9036ZM121.121 15.3525C121.121 15.2331 121.157 15.1376 121.228 15.0659C121.324 14.9704 121.431 14.9226 121.551 14.9226H125.707C125.826 14.9226 125.921 14.9704 125.993 15.0659C126.089 15.1376 126.136 15.2331 126.136 15.3525V39.5701C126.136 39.6895 126.089 39.797 125.993 39.8925C125.921 39.9642 125.826 40 125.707 40H120.978C120.739 40 120.584 39.8806 120.512 39.6418L116.07 25.7775C116.046 25.7059 115.998 25.682 115.926 25.7059C115.879 25.7059 115.855 25.7417 115.855 25.8134L115.891 39.5701C115.891 39.6895 115.843 39.797 115.747 39.8925C115.676 39.9642 115.58 40 115.461 40H111.305C111.186 40 111.078 39.9642 110.983 39.8925C110.911 39.797 110.875 39.6895 110.875 39.5701V15.3525C110.875 15.2331 110.911 15.1376 110.983 15.0659C111.078 14.9704 111.186 14.9226 111.305 14.9226H115.998C116.237 14.9226 116.392 15.042 116.464 15.2809L120.942 29.1451C120.966 29.2167 121.002 29.2525 121.049 29.2525C121.121 29.2287 121.157 29.1809 121.157 29.1092L121.121 15.3525ZM136.156 40.2866C133.958 40.2866 132.203 39.6418 130.889 38.3521C129.576 37.0624 128.919 35.3428 128.919 33.1933V21.7293C128.919 19.5798 129.576 17.8602 130.889 16.5706C132.203 15.2809 133.958 14.636 136.156 14.636C138.353 14.636 140.108 15.2809 141.422 16.5706C142.759 17.8602 143.428 19.5798 143.428 21.7293V33.1933C143.428 35.3428 142.759 37.0624 141.422 38.3521C140.108 39.6418 138.353 40.2866 136.156 40.2866ZM136.156 35.9518C136.824 35.9518 137.362 35.7249 137.768 35.2711C138.174 34.7935 138.377 34.1725 138.377 33.4082V21.5144C138.377 20.7501 138.174 20.1411 137.768 19.6873C137.362 19.2097 136.824 18.9708 136.156 18.9708C135.487 18.9708 134.95 19.2097 134.543 19.6873C134.161 20.1411 133.97 20.7501 133.97 21.5144V33.4082C133.97 34.1725 134.161 34.7935 134.543 35.2711C134.95 35.7249 135.487 35.9518 136.156 35.9518Z" fill="#0B1A1A"/>
<defs>
<linearGradient id="paint0_linear_152_2" x1="19.3013" y1="11.6028" x2="13.5656" y2="42.1436" gradientUnits="userSpaceOnUse">
<stop offset="0.177923" stop-color="#0B1A1A"/>
<stop offset="0.26058" stop-color="#0B1A1A"/>
<stop offset="0.33351" stop-color="#0B87AF"/>
<stop offset="0.504808" stop-color="#0B87AF"/>
<stop offset="0.644948" stop-color="#0B87AF"/>
<stop offset="0.688342" stop-color="#0B1A1A"/>
</linearGradient>
</defs>
</svg>
