<svg width="124" height="124" viewBox="0 0 124 124" fill="none" xmlns="http://www.w3.org/2000/svg">
<path d="M50.1179 82.1246C50.5638 82.3921 51.0691 82.511 51.5744 82.511C52.0797 82.511 52.6444 82.3624 53.0903 82.0949L82.8142 64.2605C83.7059 63.7255 84.2707 62.7446 84.2707 61.7042C84.2707 60.6639 83.7357 59.683 82.8142 59.148L53.0903 41.3136C52.6386 41.0397 52.1216 40.8923 51.5933 40.8871C51.0651 40.8819 50.5452 41.0189 50.0882 41.2839C49.1667 41.8189 48.5723 42.7998 48.5723 43.8699V79.5386C48.5723 80.6087 49.137 81.5895 50.0882 82.1246H50.1179Z" fill="#FFFCF8"/>
<path d="M31.9986 23.8325C41.3063 16.5322 52.9775 12.9159 64.7824 13.6738C75.779 14.3798 86.1747 18.8357 94.254 26.2573C95.027 26.9676 95.0292 28.1919 94.2572 28.9518C93.4949 29.7021 92.2503 29.7023 91.4322 28.9592C84.0337 22.2398 74.5546 18.2069 64.5322 17.5635C53.6836 16.867 42.9581 20.1906 34.4043 26.8996C25.8506 33.6087 20.0673 43.2338 18.1591 53.936C16.2509 64.638 18.3517 75.6679 24.0595 84.9198C29.7673 94.1718 38.6825 100.998 49.1033 104.094C59.5241 107.19 70.7202 106.339 80.5538 101.704C90.3873 97.0696 98.17 88.9757 102.415 78.9676C106.336 69.7217 106.985 59.4401 104.298 49.8133C104.002 48.7489 104.56 47.6373 105.573 47.2927C106.598 46.9439 107.691 47.4953 107.979 48.5047C110.987 59.0549 110.305 70.3448 106.003 80.4893C101.384 91.3793 92.9164 100.188 82.2163 105.231C71.516 110.274 59.3323 111.199 47.993 107.83C36.6539 104.461 26.9529 97.0334 20.7421 86.9661C14.5313 76.8987 12.2452 64.8966 14.3216 53.2512C16.3981 41.6059 22.691 31.1329 31.9986 23.8325Z" fill="#FFFCF8" stroke="#FFFCF8" stroke-linejoin="round"/>
</svg>
