<svg width="2270" height="99" viewBox="0 0 2270 99" fill="none" xmlns="http://www.w3.org/2000/svg">
<path d="M25.7217 36.5262C36.6795 45.6577 47.6373 54.7892 71.3792 54.7892C117.037 54.7892 117.037 18.2632 162.694 18.2632C210.178 18.2632 206.525 54.7892 254.009 54.7892C299.667 54.7892 299.667 18.2632 345.324 18.2632C369.066 18.2632 380.024 27.3947 390.982 36.5262" stroke="#FFFCF8" stroke-width="36.526" stroke-linecap="square" stroke-linejoin="round"/>
<path d="M398.981 43.5262C409.939 52.6577 420.897 61.7892 444.639 61.7892C490.296 61.7892 490.296 25.2632 535.954 25.2632C583.438 25.2632 579.785 61.7892 627.269 61.7892C672.926 61.7892 672.926 25.2632 718.584 25.2632C742.326 25.2632 753.284 34.3947 764.241 43.5262" stroke="#FFFCF8" stroke-width="36.526" stroke-linecap="square" stroke-linejoin="round"/>
<path d="M1505.76 54.7894C1516.72 63.9209 1527.68 73.0524 1551.42 73.0524C1597.08 73.0524 1597.08 36.5264 1642.73 36.5264C1690.22 36.5264 1686.56 73.0524 1734.05 73.0524C1779.71 73.0524 1779.71 36.5264 1825.36 36.5264C1849.11 36.5264 1860.06 45.6579 1871.02 54.7894" stroke="#FFFCF8" stroke-width="36.526" stroke-linecap="square" stroke-linejoin="round"/>
<path d="M1879.02 61.7894C1889.98 70.9209 1900.94 80.0524 1924.68 80.0524C1970.34 80.0524 1970.34 43.5264 2015.99 43.5264C2063.48 43.5264 2059.82 80.0524 2107.31 80.0524C2152.97 80.0524 2152.97 43.5264 2198.62 43.5264C2222.37 43.5264 2233.32 52.6579 2244.28 61.7894" stroke="#FFFCF8" stroke-width="36.526" stroke-linecap="square" stroke-linejoin="round"/>
<path d="M762.242 43.5262C773.2 52.6577 784.157 61.7892 807.899 61.7892C853.557 61.7892 853.557 25.2632 899.214 25.2632C946.698 25.2632 943.045 61.7892 990.529 61.7892C1036.19 61.7892 1036.19 25.2632 1081.84 25.2632C1105.59 25.2632 1116.54 34.3947 1127.5 43.5262" stroke="#FFFCF8" stroke-width="36.526" stroke-linecap="square" stroke-linejoin="round"/>
<path d="M1135.5 50.5262C1146.46 59.6577 1157.42 68.7892 1181.16 68.7892C1226.82 68.7892 1226.82 32.2632 1272.47 32.2632C1319.96 32.2632 1316.31 68.7892 1363.79 68.7892C1409.45 68.7892 1409.45 32.2632 1455.1 32.2632C1478.85 32.2632 1489.8 41.3947 1500.76 50.5262" stroke="#FFFCF8" stroke-width="36.526" stroke-linecap="square" stroke-linejoin="round"/>
</svg>
