<svg width="111" height="111" viewBox="0 0 111 111" fill="none" xmlns="http://www.w3.org/2000/svg">
<rect width="111" height="111" rx="55.5" fill="#D33F12"/>
<path d="M38.9941 76.0714V34.9286C38.9941 34.4171 39.1973 33.9265 39.559 33.5649C39.9207 33.2032 40.4112 33 40.9227 33H49.9227C50.4342 33 50.9247 33.2032 51.2864 33.5649C51.6481 33.9265 51.8513 34.4171 51.8513 34.9286V76.0714C51.8513 76.5829 51.6481 77.0735 51.2864 77.4351C50.9247 77.7968 50.4342 78 49.9227 78H40.9227C40.4112 78 39.9207 77.7968 39.559 77.4351C39.1973 77.0735 38.9941 76.5829 38.9941 76.0714ZM59.1486 76.0714V34.9286C59.1486 34.4171 59.3518 33.9265 59.7134 33.5649C60.0751 33.2032 60.5657 33 61.0772 33H70.0772C70.5886 33 71.0792 33.2032 71.4409 33.5649C71.8025 33.9265 72.0057 34.4171 72.0057 34.9286V76.0714C72.0057 76.5829 71.8025 77.0735 71.4409 77.4351C71.0792 77.7968 70.5886 78 70.0772 78H61.0772C60.5657 78 60.0751 77.7968 59.7134 77.4351C59.3518 77.0735 59.1486 76.5829 59.1486 76.0714Z" fill="#FFFCF8" stroke="#FFFCF8" stroke-width="1.5"/>
</svg>
