<svg width="111" height="111" viewBox="0 0 111 111" fill="none" xmlns="http://www.w3.org/2000/svg">
<rect width="111" height="111" rx="55.5" fill="#D33F12"/>
<path d="M43.671 77.5822C44.153 77.8715 44.6993 78 45.2456 78C45.7919 78 46.4025 77.8393 46.8845 77.5501L79.0192 58.2693C79.9832 57.6909 80.5938 56.6304 80.5938 55.5057C80.5938 54.381 80.0154 53.3205 79.0192 52.7421L46.8845 33.4613C46.3962 33.1651 45.8372 33.0058 45.2661 33.0002C44.695 32.9945 44.1329 33.1427 43.6389 33.4291C42.6427 34.0076 42 35.068 42 36.2249V74.7865C42 75.9434 42.6106 77.0038 43.6389 77.5822H43.671Z" fill="#FFFCF8"/>
</svg>
