<svg width="16" height="16" viewBox="0 0 16 16" fill="none" xmlns="http://www.w3.org/2000/svg">
<path d="M14.0773 10.9212C14.2041 11.0744 14.2649 11.2716 14.2464 11.4695C14.2279 11.6674 14.1315 11.8499 13.9785 11.9769C12.8429 12.9194 11.816 13.25 10.8841 13.25C9.64913 13.25 8.58038 12.6694 7.64163 12.16C6.07538 11.3087 4.83788 10.6369 2.97851 12.1787C2.82534 12.3057 2.62801 12.3666 2.42993 12.3481C2.23184 12.3296 2.04923 12.2332 1.92226 12.08C1.79528 11.9268 1.73436 11.7295 1.75287 11.5314C1.77139 11.3333 1.86784 11.1507 2.02101 11.0237C4.66163 8.83624 6.70851 9.94687 8.35788 10.8412C9.92413 11.6919 11.1616 12.3644 13.021 10.8225C13.0968 10.7596 13.1843 10.7123 13.2784 10.6832C13.3726 10.6541 13.4715 10.6439 13.5696 10.6531C13.6677 10.6622 13.763 10.6906 13.8501 10.7366C13.9372 10.7827 14.0144 10.8454 14.0773 10.9212ZM13.021 7.32187C11.1616 8.86374 9.92413 8.19124 8.35788 7.34062C6.71101 6.44687 4.66163 5.33374 2.02101 7.52312C1.86784 7.65009 1.77139 7.83271 1.75287 8.03079C1.73436 8.22888 1.79528 8.42621 1.92226 8.57937C2.04923 8.73253 2.23184 8.82898 2.42993 8.8475C2.62801 8.86602 2.82534 8.80509 2.97851 8.67812C4.83788 7.13624 6.07538 7.80812 7.64163 8.65937C8.57913 9.16874 9.64913 9.74937 10.8841 9.74937C11.816 9.74937 12.8429 9.41874 13.9785 8.47687C14.1317 8.3499 14.2281 8.16728 14.2466 7.96919C14.2652 7.77111 14.2042 7.57378 14.0773 7.42062C13.9503 7.26746 13.7677 7.17101 13.5696 7.15249C13.3715 7.13397 13.1742 7.1949 13.021 7.32187ZM2.97851 5.17749C4.83788 3.63562 6.07538 4.30749 7.64163 5.15874C8.57913 5.66812 9.64913 6.24874 10.8841 6.24874C11.816 6.24874 12.8429 5.91812 13.9785 4.97624C14.1317 4.84927 14.2281 4.66666 14.2466 4.46857C14.2652 4.27049 14.2042 4.07316 14.0773 3.91999C13.9503 3.76683 13.7677 3.67038 13.5696 3.65186C13.3715 3.63334 13.1742 3.69427 13.021 3.82124C11.1616 5.36312 9.92413 4.69124 8.35788 3.83999C6.71101 2.94624 4.66163 1.83312 2.02101 4.02312C1.94336 4.08539 1.87888 4.16249 1.83134 4.24994C1.78379 4.33738 1.75413 4.43341 1.74407 4.53243C1.73402 4.63145 1.74377 4.73149 1.77277 4.8267C1.80177 4.92192 1.84942 5.01041 1.91297 5.08702C1.97651 5.16363 2.05467 5.22682 2.14288 5.27292C2.2311 5.31902 2.3276 5.34709 2.42678 5.35551C2.52596 5.36394 2.62582 5.35253 2.72054 5.32197C2.81526 5.2914 2.90296 5.24229 2.97851 5.17749Z" fill="#FFFCF8"/>
</svg>
